# xmcd
#
# Track frame offsets: 
#        150
#        13911
#        27324
#        41338
#        56950
#        69422
#        84655
#        100779
#        116082
#        128913
#        144763
#        160003
#        176608
#
# Disc length: 2531 seconds
#
# Revision: 0
# Processed by: cddbd v1.5.2PL0 Copyright (c) Steve Scherf et al.
# Submitted via: ExactAudioCopy v1.3
#
DISCID=aa09e10d
DTITLE=Roy Clark - The Last Word In Jesus Is Us
DYEAR=1981
DGENRE=Gospel
TTITLE0=The Last Word In Jesus Is Us
TTITLE1=Would They Love Him Down In Shreveport
TTITLE2=Safely In The Arms Of Jesus
TTITLE3=Come Back Home
TTITLE4=I Would Crawl All The Way (To The River)
TTITLE5=Help Me
TTITLE6=Heaven Bound
TTITLE7=(There'll Be) Peace In The Valley
TTITLE8=Look What He's Done To My Life
TTITLE9=Shinin' Face
TTITLE10=Onward Christian Soldiers
TTITLE11=Just A Closer Walk With Thee
TTITLE12=Wait A Little Longer, Please Jesus
EXTD=
EXTT0=
EXTT1=
EXTT2=
EXTT3=
EXTT4=
EXTT5=
EXTT6=
EXTT7=
EXTT8=
EXTT9=
EXTT10=
EXTT11=
EXTT12=
PLAYORDER=
